<?xml version="1.0" standalone="no"?><!DOCTYPE svg PUBLIC "-//W3C//DTD SVG 1.1//EN" "http://www.w3.org/Graphics/SVG/1.1/DTD/svg11.dtd"><svg t="1598429369886" class="icon" viewBox="0 0 1024 1024" version="1.1" xmlns="http://www.w3.org/2000/svg" p-id="4013" xmlns:xlink="http://www.w3.org/1999/xlink" width="200" height="200"><defs><style type="text/css"></style></defs><path d="M860.472088 590.895885l-336.411913 336.443635c-16.773012 16.836457-38.933731 25.230638-61.014632 25.230638-22.065552 0-44.161802-8.394181-60.934814-25.230638L96.718297 621.962437c-16.309454-16.324804-25.310456-37.942147-25.310456-61.031005 0-23.008017 9.002025-44.706201 25.310456-60.98291l336.443635-336.443635c3.997034-3.997034 9.465582-6.299473 15.158235-6.299473L722.181465 157.205415c11.879562 0 21.505803 9.657964 21.505803 21.537526s-9.625218 21.441335-21.505803 21.441335L457.224977 200.184275 127.097188 530.376533c-8.18645 8.18645-12.71151 19.010983-12.71151 30.5549 0 11.576663 4.52506 22.416546 12.71151 30.635741l305.377082 305.393455c16.836457 16.821107 44.337811 16.868179 61.222363 0l330.127789-330.192258L823.824423 422.050362c0-11.879562 9.577123-21.48943 21.457708-21.48943s21.521153 9.609869 21.521153 21.48943l0 153.655566C866.803283 581.413929 864.500844 586.834382 860.472088 590.895885L860.472088 590.895885zM921.086607 255.507278l-62.325487 62.325487c-8.378831 8.394181-21.969361 8.394181-30.347169 0-8.394181-8.394181-8.394181-22.001083 0-30.426987l62.245669-62.245669c25.310456-25.358551 25.310456-66.48318 0-91.793636-25.310456-25.263383-66.418712-25.343201-91.745541 0L680.130743 252.148787c-25.054629 25.054629-25.263383 65.683978-0.671289 91.026156 0.799202 0.671289 1.551332 1.343601 2.094708 1.983167 8.026814 8.762571 7.435343 22.36845-1.295506 30.379914-4.109598 3.821025-9.337669 5.676279-14.550391 5.676279-5.004991 0-9.960863-1.774413-13.95892-5.212722-0.479931-0.38374-1.006933-0.751107-1.295506-1.087774-42.771129-42.723034-42.771129-111.188358-0.687662-153.160285l118.703519-118.783337c42.09984-42.051745 110.517069-42.051745 152.61691 0C963.121979 145.038304 963.121979 213.407438 921.086607 255.507278L921.086607 255.507278z" p-id="4014"></path></svg>